<mxfile host="app.diagrams.net" agent="Mozilla/5.0 (Windows NT 10.0; Win64; x64) AppleWebKit/537.36 (KHTML, like Gecko) Chrome/133.0.0.0 Safari/537.36 Edg/133.0.0.0" version="26.0.14">
  <diagram name="Page-1" id="C9rTjjew_Ramq_1eEfDc">
    <mxGraphModel dx="901" dy="558" grid="1" gridSize="10" guides="1" tooltips="1" connect="1" arrows="1" fold="1" page="1" pageScale="1" pageWidth="827" pageHeight="1169" math="0" shadow="0">
      <root>
        <mxCell id="0" />
        <mxCell id="1" parent="0" />
        <mxCell id="M9B4mnl6NNPCSzlShtEf-1" value="" style="rounded=0;whiteSpace=wrap;html=1;fillColor=#dae8fc;strokeColor=#6c8ebf;" vertex="1" parent="1">
          <mxGeometry x="175" y="10" width="550" height="830" as="geometry" />
        </mxCell>
        <mxCell id="M9B4mnl6NNPCSzlShtEf-2" value="EcoRide&lt;div&gt;&lt;br&gt;&lt;/div&gt;" style="text;strokeColor=none;fillColor=none;html=1;fontSize=24;fontStyle=1;verticalAlign=middle;align=center;" vertex="1" parent="1">
          <mxGeometry x="580" y="40" width="100" height="40" as="geometry" />
        </mxCell>
        <mxCell id="M9B4mnl6NNPCSzlShtEf-3" value="Admin&lt;div&gt;&lt;br&gt;&lt;/div&gt;" style="shape=umlActor;verticalLabelPosition=bottom;verticalAlign=top;html=1;outlineConnect=0;" vertex="1" parent="1">
          <mxGeometry x="70" y="110" width="30" height="60" as="geometry" />
        </mxCell>
        <mxCell id="M9B4mnl6NNPCSzlShtEf-4" value="Employee&lt;div&gt;&lt;br&gt;&lt;/div&gt;" style="shape=umlActor;verticalLabelPosition=bottom;verticalAlign=top;html=1;outlineConnect=0;" vertex="1" parent="1">
          <mxGeometry x="70" y="310" width="30" height="60" as="geometry" />
        </mxCell>
        <mxCell id="M9B4mnl6NNPCSzlShtEf-12" value="&lt;div&gt;Utilisateur&lt;/div&gt;&lt;div&gt;&lt;br&gt;&lt;/div&gt;" style="shape=umlActor;verticalLabelPosition=bottom;verticalAlign=top;html=1;outlineConnect=0;" vertex="1" parent="1">
          <mxGeometry x="60" y="460" width="30" height="60" as="geometry" />
        </mxCell>
        <mxCell id="M9B4mnl6NNPCSzlShtEf-13" value="&lt;div&gt;Visiteur&lt;/div&gt;" style="shape=umlActor;verticalLabelPosition=bottom;verticalAlign=top;html=1;outlineConnect=0;" vertex="1" parent="1">
          <mxGeometry x="70" y="610" width="30" height="60" as="geometry" />
        </mxCell>
        <mxCell id="M9B4mnl6NNPCSzlShtEf-14" value="Rechercher covoiturage" style="ellipse;whiteSpace=wrap;html=1;" vertex="1" parent="1">
          <mxGeometry x="230" y="770" width="80" height="50" as="geometry" />
        </mxCell>
        <mxCell id="M9B4mnl6NNPCSzlShtEf-15" value="Inscription" style="ellipse;whiteSpace=wrap;html=1;" vertex="1" parent="1">
          <mxGeometry x="230" y="690" width="80" height="50" as="geometry" />
        </mxCell>
        <mxCell id="M9B4mnl6NNPCSzlShtEf-18" value="Connexion" style="ellipse;whiteSpace=wrap;html=1;" vertex="1" parent="1">
          <mxGeometry x="230" y="580" width="80" height="50" as="geometry" />
        </mxCell>
        <mxCell id="M9B4mnl6NNPCSzlShtEf-21" value="Gerer son espace" style="ellipse;whiteSpace=wrap;html=1;" vertex="1" parent="1">
          <mxGeometry x="240" y="460" width="80" height="50" as="geometry" />
        </mxCell>
        <mxCell id="M9B4mnl6NNPCSzlShtEf-22" value="Devenir chauffeur/Passager" style="ellipse;whiteSpace=wrap;html=1;" vertex="1" parent="1">
          <mxGeometry x="400" y="430" width="120" height="70" as="geometry" />
        </mxCell>
        <mxCell id="M9B4mnl6NNPCSzlShtEf-23" value="Ajout/modification Voiture" style="ellipse;whiteSpace=wrap;html=1;" vertex="1" parent="1">
          <mxGeometry x="390" y="520" width="120" height="70" as="geometry" />
        </mxCell>
        <mxCell id="M9B4mnl6NNPCSzlShtEf-24" value="Proposer un trajet" style="ellipse;whiteSpace=wrap;html=1;" vertex="1" parent="1">
          <mxGeometry x="580" y="515" width="120" height="70" as="geometry" />
        </mxCell>
        <mxCell id="M9B4mnl6NNPCSzlShtEf-25" value="Participer à un covoiturage" style="ellipse;whiteSpace=wrap;html=1;" vertex="1" parent="1">
          <mxGeometry x="580" y="430" width="120" height="70" as="geometry" />
        </mxCell>
        <mxCell id="M9B4mnl6NNPCSzlShtEf-26" value="Demarrer/Arrêter un trajet" style="ellipse;whiteSpace=wrap;html=1;" vertex="1" parent="1">
          <mxGeometry x="580" y="605" width="120" height="70" as="geometry" />
        </mxCell>
        <mxCell id="M9B4mnl6NNPCSzlShtEf-27" value="soumettre un avis" style="ellipse;whiteSpace=wrap;html=1;" vertex="1" parent="1">
          <mxGeometry x="390" y="620" width="110" height="70" as="geometry" />
        </mxCell>
        <mxCell id="M9B4mnl6NNPCSzlShtEf-28" value="Valider les avis" style="ellipse;whiteSpace=wrap;html=1;" vertex="1" parent="1">
          <mxGeometry x="235" y="270" width="80" height="50" as="geometry" />
        </mxCell>
        <mxCell id="M9B4mnl6NNPCSzlShtEf-29" value="Consulter les trajet litigieux" style="ellipse;whiteSpace=wrap;html=1;" vertex="1" parent="1">
          <mxGeometry x="230" y="350" width="90" height="60" as="geometry" />
        </mxCell>
        <mxCell id="M9B4mnl6NNPCSzlShtEf-30" value="Creer compte employé" style="ellipse;whiteSpace=wrap;html=1;" vertex="1" parent="1">
          <mxGeometry x="254" y="10" width="120" height="70" as="geometry" />
        </mxCell>
        <mxCell id="M9B4mnl6NNPCSzlShtEf-31" value="Suspendre compte utilisateur/emplyes" style="ellipse;whiteSpace=wrap;html=1;" vertex="1" parent="1">
          <mxGeometry x="250" y="180" width="130" height="70" as="geometry" />
        </mxCell>
        <mxCell id="M9B4mnl6NNPCSzlShtEf-32" value="Visualiser les stats" style="ellipse;whiteSpace=wrap;html=1;" vertex="1" parent="1">
          <mxGeometry x="250" y="100" width="120" height="70" as="geometry" />
        </mxCell>
        <mxCell id="M9B4mnl6NNPCSzlShtEf-34" value="" style="endArrow=none;html=1;rounded=0;entryX=0;entryY=0.5;entryDx=0;entryDy=0;" edge="1" parent="1" source="M9B4mnl6NNPCSzlShtEf-3" target="M9B4mnl6NNPCSzlShtEf-30">
          <mxGeometry width="50" height="50" relative="1" as="geometry">
            <mxPoint x="390" y="290" as="sourcePoint" />
            <mxPoint x="440" y="240" as="targetPoint" />
            <Array as="points" />
          </mxGeometry>
        </mxCell>
        <mxCell id="M9B4mnl6NNPCSzlShtEf-35" value="" style="endArrow=none;html=1;rounded=0;entryX=0;entryY=0.5;entryDx=0;entryDy=0;exitX=0.5;exitY=0.5;exitDx=0;exitDy=0;exitPerimeter=0;" edge="1" parent="1" source="M9B4mnl6NNPCSzlShtEf-3">
          <mxGeometry width="50" height="50" relative="1" as="geometry">
            <mxPoint x="96" y="217" as="sourcePoint" />
            <mxPoint x="250" y="130" as="targetPoint" />
            <Array as="points" />
          </mxGeometry>
        </mxCell>
        <mxCell id="M9B4mnl6NNPCSzlShtEf-36" value="" style="endArrow=none;html=1;rounded=0;entryX=0;entryY=0.5;entryDx=0;entryDy=0;" edge="1" parent="1" source="M9B4mnl6NNPCSzlShtEf-3">
          <mxGeometry width="50" height="50" relative="1" as="geometry">
            <mxPoint x="85" y="220" as="sourcePoint" />
            <mxPoint x="250" y="210" as="targetPoint" />
            <Array as="points" />
          </mxGeometry>
        </mxCell>
        <mxCell id="M9B4mnl6NNPCSzlShtEf-37" value="" style="endArrow=none;html=1;rounded=0;entryX=0;entryY=0.5;entryDx=0;entryDy=0;exitX=1;exitY=0.3333333333333333;exitDx=0;exitDy=0;exitPerimeter=0;" edge="1" parent="1" source="M9B4mnl6NNPCSzlShtEf-4">
          <mxGeometry width="50" height="50" relative="1" as="geometry">
            <mxPoint x="90" y="239.64" as="sourcePoint" />
            <mxPoint x="240" y="303.64" as="targetPoint" />
            <Array as="points" />
          </mxGeometry>
        </mxCell>
        <mxCell id="M9B4mnl6NNPCSzlShtEf-38" value="" style="endArrow=none;html=1;rounded=0;entryX=0;entryY=0.5;entryDx=0;entryDy=0;" edge="1" parent="1" source="M9B4mnl6NNPCSzlShtEf-4">
          <mxGeometry width="50" height="50" relative="1" as="geometry">
            <mxPoint x="95" y="393.18" as="sourcePoint" />
            <mxPoint x="235" y="366.82" as="targetPoint" />
            <Array as="points" />
          </mxGeometry>
        </mxCell>
        <mxCell id="M9B4mnl6NNPCSzlShtEf-41" value="" style="endArrow=none;html=1;rounded=0;" edge="1" parent="1" source="M9B4mnl6NNPCSzlShtEf-12" target="M9B4mnl6NNPCSzlShtEf-18">
          <mxGeometry width="50" height="50" relative="1" as="geometry">
            <mxPoint x="90" y="524.86" as="sourcePoint" />
            <mxPoint x="235" y="520" as="targetPoint" />
            <Array as="points" />
          </mxGeometry>
        </mxCell>
        <mxCell id="M9B4mnl6NNPCSzlShtEf-44" value="" style="endArrow=none;html=1;rounded=0;entryX=0.763;entryY=0.1;entryDx=0;entryDy=0;entryPerimeter=0;" edge="1" parent="1" source="M9B4mnl6NNPCSzlShtEf-21" target="M9B4mnl6NNPCSzlShtEf-18">
          <mxGeometry width="50" height="50" relative="1" as="geometry">
            <mxPoint x="249" y="501" as="sourcePoint" />
            <mxPoint x="400" y="590" as="targetPoint" />
            <Array as="points" />
          </mxGeometry>
        </mxCell>
        <mxCell id="M9B4mnl6NNPCSzlShtEf-45" value="" style="endArrow=none;html=1;rounded=0;" edge="1" parent="1" source="M9B4mnl6NNPCSzlShtEf-21">
          <mxGeometry width="50" height="50" relative="1" as="geometry">
            <mxPoint x="254" y="445.65999999999997" as="sourcePoint" />
            <mxPoint x="405" y="534.66" as="targetPoint" />
            <Array as="points" />
          </mxGeometry>
        </mxCell>
        <mxCell id="M9B4mnl6NNPCSzlShtEf-46" value="" style="endArrow=none;html=1;rounded=0;entryX=0.05;entryY=0.614;entryDx=0;entryDy=0;entryPerimeter=0;exitX=1.013;exitY=0.34;exitDx=0;exitDy=0;exitPerimeter=0;" edge="1" parent="1" source="M9B4mnl6NNPCSzlShtEf-21" target="M9B4mnl6NNPCSzlShtEf-22">
          <mxGeometry width="50" height="50" relative="1" as="geometry">
            <mxPoint x="309" y="459.72" as="sourcePoint" />
            <mxPoint x="400" y="496.38" as="targetPoint" />
            <Array as="points" />
          </mxGeometry>
        </mxCell>
        <mxCell id="M9B4mnl6NNPCSzlShtEf-47" value="" style="endArrow=none;html=1;rounded=0;exitX=1.013;exitY=0.34;exitDx=0;exitDy=0;exitPerimeter=0;" edge="1" parent="1">
          <mxGeometry width="50" height="50" relative="1" as="geometry">
            <mxPoint x="519.96" y="464.02" as="sourcePoint" />
            <mxPoint x="580" y="464" as="targetPoint" />
            <Array as="points" />
          </mxGeometry>
        </mxCell>
        <mxCell id="M9B4mnl6NNPCSzlShtEf-49" value="" style="endArrow=none;html=1;rounded=0;exitX=1.013;exitY=0.34;exitDx=0;exitDy=0;exitPerimeter=0;entryX=0;entryY=0;entryDx=0;entryDy=0;" edge="1" parent="1" target="M9B4mnl6NNPCSzlShtEf-24">
          <mxGeometry width="50" height="50" relative="1" as="geometry">
            <mxPoint x="519.96" y="464.02" as="sourcePoint" />
            <mxPoint x="580" y="464" as="targetPoint" />
            <Array as="points" />
          </mxGeometry>
        </mxCell>
        <mxCell id="M9B4mnl6NNPCSzlShtEf-52" value="" style="endArrow=none;html=1;rounded=0;exitX=0;exitY=0;exitDx=0;exitDy=0;entryX=1;entryY=1;entryDx=0;entryDy=0;" edge="1" parent="1" source="M9B4mnl6NNPCSzlShtEf-26" target="M9B4mnl6NNPCSzlShtEf-22">
          <mxGeometry width="50" height="50" relative="1" as="geometry">
            <mxPoint x="390" y="640" as="sourcePoint" />
            <mxPoint x="440" y="590" as="targetPoint" />
          </mxGeometry>
        </mxCell>
        <mxCell id="M9B4mnl6NNPCSzlShtEf-53" value="" style="endArrow=none;html=1;rounded=0;entryX=0.9;entryY=0.72;entryDx=0;entryDy=0;entryPerimeter=0;exitX=0.073;exitY=0.286;exitDx=0;exitDy=0;exitPerimeter=0;" edge="1" parent="1" source="M9B4mnl6NNPCSzlShtEf-27" target="M9B4mnl6NNPCSzlShtEf-18">
          <mxGeometry width="50" height="50" relative="1" as="geometry">
            <mxPoint x="390" y="640" as="sourcePoint" />
            <mxPoint x="440" y="590" as="targetPoint" />
          </mxGeometry>
        </mxCell>
        <mxCell id="M9B4mnl6NNPCSzlShtEf-54" value="" style="endArrow=none;html=1;rounded=0;exitX=0.5;exitY=0.5;exitDx=0;exitDy=0;exitPerimeter=0;entryX=0.125;entryY=0.2;entryDx=0;entryDy=0;entryPerimeter=0;" edge="1" parent="1" source="M9B4mnl6NNPCSzlShtEf-13" target="M9B4mnl6NNPCSzlShtEf-15">
          <mxGeometry width="50" height="50" relative="1" as="geometry">
            <mxPoint x="150" y="710" as="sourcePoint" />
            <mxPoint x="230" y="700" as="targetPoint" />
          </mxGeometry>
        </mxCell>
        <mxCell id="M9B4mnl6NNPCSzlShtEf-55" value="" style="endArrow=none;html=1;rounded=0;entryX=0.5;entryY=1;entryDx=0;entryDy=0;" edge="1" parent="1" target="M9B4mnl6NNPCSzlShtEf-18">
          <mxGeometry width="50" height="50" relative="1" as="geometry">
            <mxPoint x="265" y="690" as="sourcePoint" />
            <mxPoint x="315" y="640" as="targetPoint" />
          </mxGeometry>
        </mxCell>
        <mxCell id="M9B4mnl6NNPCSzlShtEf-56" value="" style="endArrow=none;html=1;rounded=0;entryX=0.05;entryY=0.32;entryDx=0;entryDy=0;entryPerimeter=0;" edge="1" parent="1" source="M9B4mnl6NNPCSzlShtEf-13" target="M9B4mnl6NNPCSzlShtEf-14">
          <mxGeometry width="50" height="50" relative="1" as="geometry">
            <mxPoint x="110" y="770" as="sourcePoint" />
            <mxPoint x="160" y="720" as="targetPoint" />
          </mxGeometry>
        </mxCell>
      </root>
    </mxGraphModel>
  </diagram>
</mxfile>
